<svg width="58" height="50" viewBox="0 0 58 50" fill="none" xmlns="http://www.w3.org/2000/svg">
<path d="M27.4074 24.9983L27.7719 24.3654L35.3569 11.2333L28.8721 0L14.4344 24.9983L28.8721 50L35.3569 38.7667L27.7719 25.6346L27.4074 24.9983Z" fill="white"/>
<path d="M19.8224 36.8646L14.4344 46.1959L2.19696 24.9983L14.4344 3.8041L19.8224 13.1321L20.9225 11.2333L14.4344 0L0 24.9983L14.4344 50L20.9225 38.7667L19.8224 36.8646Z" fill="white"/>
<path d="M42.9782 21.9463L42.9882 21.9529V17.9202L33.8855 33.6833L35.042 35.6881L42.9782 21.9463Z" fill="white"/>
<path d="M42.9783 16.4322L42.9882 16.4389V12.4061L32.295 30.9296L33.4515 32.931L42.9783 16.4322Z" fill="white"/>
<path d="M30.2671 27.4173L42.9783 5.40789L42.9883 5.41452V0.550049L28.872 24.9983L30.2671 27.4173Z" fill="white"/>
<path d="M42.9782 10.9184L42.9881 10.9251V6.89563L30.701 28.1727L31.8575 30.1742L42.9782 10.9184Z" fill="white"/>
<path d="M43.6211 0.549927V49.4498L57.7407 24.9982L43.6211 0.549927Z" fill="white"/>
<path d="M42.9782 27.4569L42.9882 27.4635V23.4308L35.4761 36.4403L36.6325 38.4417L42.9782 27.4569Z" fill="white"/>
<path d="M42.9782 32.9709L42.9882 32.9776V28.9448L37.0699 39.1973L38.2264 41.1988L42.9782 32.9709Z" fill="white"/>
<path d="M42.9882 44.2009L41.4738 46.8254L42.9882 49.4498V44.2009Z" fill="white"/>
<path d="M41.0398 46.0698L42.9782 42.7131L42.9882 42.7197V39.9694L40.2511 44.7112L41.0398 46.0698Z" fill="white"/>
<path d="M42.9782 38.4815L42.9882 38.4882V34.4587L38.6605 41.9543L39.817 43.9557L42.9782 38.4815Z" fill="white"/>
</svg>
